<svg width="53" height="16" viewBox="0 0 53 16" fill="none" xmlns="http://www.w3.org/2000/svg">
<path d="M23.8337 4.92357C25.1434 7.55 22.0252 11.7137 18.3445 13.5845C13.9861 15.801 7.33627 15.5648 4.47044 11.9864C2.90039 10.027 2.45323 7.04452 3.8623 4.92357C7.35019 -0.331012 21.6952 0.634789 23.8337 4.92357Z" fill="#5C6F72" fill-opacity="0.6"/>
<path d="M24.2153 5.24668C24.9795 4.67938 25.9494 4.36792 26.952 4.36792C27.9546 4.36792 28.9245 4.67938 29.6886 5.24668" stroke="black" stroke-linecap="round" stroke-linejoin="round"/>
<path d="M4.22222 4.44936H1.38818" stroke="black" stroke-linecap="round" stroke-linejoin="round"/>
<path d="M52.4009 4.44936H49.5669" stroke="black" stroke-linecap="round" stroke-linejoin="round"/>
<path d="M30.1658 4.92357C28.8561 7.55 31.9743 11.7137 35.653 13.5845C40.0133 15.801 46.6612 15.5648 49.527 11.9864C51.0971 10.0236 51.5442 7.04104 50.1372 4.92357C46.6413 -0.331012 32.3042 0.634789 30.1658 4.92357Z" fill="#5C6F72" fill-opacity="0.6"/>
<path d="M23.8337 4.92357C25.1434 7.55 22.0252 11.7137 18.3445 13.5845C13.9861 15.801 7.33627 15.5648 4.47044 11.9864C2.90039 10.027 2.45323 7.04452 3.8623 4.92357C7.35019 -0.331013 21.6952 0.634789 23.8337 4.92357Z" stroke="black" stroke-linecap="round" stroke-linejoin="round"/>
<path d="M30.1658 4.92357C28.8561 7.55 31.9743 11.7137 35.653 13.5845C40.0133 15.801 46.6612 15.5648 49.527 11.9864C51.0971 10.0236 51.5442 7.04104 50.1372 4.92357C46.6413 -0.331013 32.3042 0.634789 30.1658 4.92357Z" stroke="black" stroke-linecap="round" stroke-linejoin="round"/>
<path d="M13.5771 1.33655C18.0337 0.941049 22.5107 0.74682 26.9901 0.754637C31.74 0.754637 36.4223 0.989139 40.423 1.33655" stroke="black" stroke-linecap="round" stroke-linejoin="round"/>
<path d="M45.1625 7.41797C46.1602 7.41797 46.9691 6.71104 46.9691 5.83899C46.9691 4.96694 46.1602 4.26001 45.1625 4.26001C44.1648 4.26001 43.356 4.96694 43.356 5.83899C43.356 6.71104 44.1648 7.41797 45.1625 7.41797Z" fill="#F6F6F6"/>
</svg>
