<svg width="31" height="56" viewBox="0 0 31 56" fill="none" xmlns="http://www.w3.org/2000/svg">
<path d="M27.9898 20.4422L23.2363 28.5367" stroke="#3C5978" stroke-miterlimit="10" stroke-linecap="round"/>
<path d="M23.2363 20.4422L27.9898 28.5367" stroke="#3C5978" stroke-miterlimit="10" stroke-linecap="round"/>
<path d="M30.1938 24.4895H21.0327" stroke="#3C5978" stroke-miterlimit="10" stroke-linecap="round"/>
<path d="M22.1852 42.3811C22.2913 42.3807 22.3964 42.4031 22.4936 42.447C22.5909 42.4908 22.6783 42.5551 22.7502 42.6357C22.8221 42.7164 22.877 42.8116 22.9113 42.9153C22.9457 43.0191 22.9588 43.1291 22.9498 43.2384C22.7407 45.7203 21.6389 48.031 19.8618 49.7145C18.0848 51.3979 15.7617 52.3318 13.351 52.3318C10.9403 52.3318 8.6172 51.3979 6.84019 49.7145C5.06318 48.031 3.96139 45.7203 3.75228 43.2384C3.74326 43.1291 3.75635 43.0191 3.79071 42.9153C3.82507 42.8116 3.87995 42.7164 3.95187 42.6357C4.02378 42.5551 4.11115 42.4908 4.20841 42.447C4.30568 42.4031 4.4107 42.3807 4.51681 42.3811H22.1852Z" fill="#3C5978"/>
<path d="M17.9037 30.6404C20.55 31.732 22.7457 33.7424 24.1131 36.3258C25.4806 38.9092 25.9344 41.9042 25.3965 44.7959C24.8587 47.6877 23.3628 50.2954 21.166 52.1708C18.9693 54.0462 16.2089 55.0721 13.3595 55.0721C10.5101 55.0721 7.74971 54.0462 5.55294 52.1708C3.35617 50.2954 1.86027 47.6877 1.32242 44.7959C0.784569 41.9042 1.23838 38.9092 2.60583 36.3258C3.97328 33.7424 6.16893 31.732 8.81528 30.6404" stroke="black" stroke-miterlimit="10" stroke-linecap="round"/>
<path d="M8.81543 18.2931V30.3638" stroke="black" stroke-miterlimit="10" stroke-linecap="round"/>
<path d="M17.9038 18.382V30.3638" stroke="black" stroke-miterlimit="10" stroke-linecap="round"/>
<path d="M8.81546 12.9244C8.77914 6.9197 8.81546 6.97105 8.81546 5.74048C8.83984 4.51167 9.32932 3.34168 10.1789 2.48155C11.0284 1.62142 12.1704 1.13968 13.3597 1.13968C14.549 1.13968 15.6909 1.62142 16.5405 2.48155C17.39 3.34168 17.8795 4.51167 17.9039 5.74048V12.9343" stroke="black" stroke-miterlimit="10" stroke-linecap="round"/>
<path opacity="0.5" d="M8.41754 48.056C6.98321 46.7042 6.12727 44.8189 6.03802 42.8149C5.94877 40.8109 6.63351 38.8523 7.94161 37.37C9.24972 35.8877 11.074 35.0032 13.0132 34.9109C14.9524 34.8187 16.8476 35.5263 18.282 36.8782" fill="#F6F6F6"/>
</svg>
