<svg width="111" height="206" viewBox="0 0 111 206" fill="none" xmlns="http://www.w3.org/2000/svg">
<path d="M101.626 74.1436L83.8389 104.498" stroke="#3C5978" stroke-width="2" stroke-miterlimit="10" stroke-linecap="round"/>
<path d="M83.8389 74.1436L101.626 104.498" stroke="#3C5978" stroke-width="2" stroke-miterlimit="10" stroke-linecap="round"/>
<path d="M109.873 89.3209H75.5928" stroke="#3C5978" stroke-width="2" stroke-miterlimit="10" stroke-linecap="round"/>
<path d="M79.9052 156.415C80.3022 156.413 80.6952 156.497 81.0592 156.662C81.4231 156.826 81.7501 157.067 82.0192 157.37C82.2883 157.672 82.4936 158.029 82.6222 158.418C82.7508 158.807 82.7998 159.22 82.766 159.629C81.9836 168.936 77.8607 177.602 71.2112 183.915C64.5618 190.228 55.8688 193.73 46.8481 193.73C37.8275 193.73 29.1345 190.228 22.485 183.915C15.8356 177.602 11.7127 168.936 10.9303 159.629C10.8965 159.22 10.9455 158.807 11.0741 158.418C11.2027 158.029 11.408 157.672 11.6771 157.37C11.9462 157.067 12.2731 156.826 12.6371 156.662C13.001 156.497 13.3941 156.413 13.7911 156.415H79.9052Z" fill="#3C5978"/>
<path d="M63.8843 112.387C73.7868 116.481 82.0028 124.019 87.1197 133.707C92.2366 143.395 93.9347 154.626 91.9221 165.47C89.9095 176.314 84.3119 186.093 76.0918 193.126C67.8716 200.159 57.5424 204.006 46.8802 204.006C36.2179 204.006 25.8888 200.159 17.6686 193.126C9.44844 186.093 3.85087 176.314 1.83827 165.47C-0.174325 154.626 1.52381 143.395 6.64072 133.707C11.7576 124.019 19.9736 116.481 29.8761 112.387" stroke="black" stroke-width="2" stroke-miterlimit="10" stroke-linecap="round"/>
<path d="M29.8765 66.0847V111.35" stroke="black" stroke-width="2" stroke-miterlimit="10" stroke-linecap="round"/>
<path d="M63.8848 66.4179V111.35" stroke="black" stroke-width="2" stroke-miterlimit="10" stroke-linecap="round"/>
<path d="M29.8758 45.952C29.7399 23.4343 29.8758 23.6269 29.8758 19.0123C29.9671 14.4042 31.7987 10.0168 34.9776 6.79127C38.1566 3.56579 42.4296 1.75925 46.88 1.75925C51.3303 1.75925 55.6033 3.56579 58.7823 6.79127C61.9613 10.0168 63.7929 14.4042 63.8841 19.0123V45.9891" stroke="black" stroke-width="2" stroke-miterlimit="10" stroke-linecap="round"/>
<path opacity="0.5" d="M28.3881 177.696C23.0209 172.626 19.8181 165.556 19.4841 158.041C19.1501 150.526 21.7124 143.181 26.6072 137.623C31.502 132.064 38.3285 128.747 45.5848 128.401C52.8411 128.056 59.9329 130.709 65.3001 135.779" fill="#F6F6F6"/>
</svg>
