<svg width="49" height="48" viewBox="0 0 49 48" fill="none" xmlns="http://www.w3.org/2000/svg">
<path d="M24.7464 41.1547C34.3121 41.1547 42.0666 33.4376 42.0666 23.918C42.0666 14.3984 34.3121 6.68125 24.7464 6.68125C15.1808 6.68125 7.42627 14.3984 7.42627 23.918C7.42627 33.4376 15.1808 41.1547 24.7464 41.1547Z" stroke="black" stroke-linecap="round" stroke-linejoin="round"/>
<path d="M23.1569 9.21179C23.1569 12.6216 21.7957 15.8918 19.3729 18.3029C16.9502 20.7141 13.6641 22.0686 10.2378 22.0686" stroke="black" stroke-linecap="round" stroke-linejoin="round"/>
<path d="M26.1621 9.21179C26.1621 12.6216 27.5232 15.8918 29.946 18.3029C32.3688 20.7141 35.6548 22.0686 39.0812 22.0686" stroke="black" stroke-linecap="round" stroke-linejoin="round"/>
<path d="M45.0505 17.3096C45.7618 17.3096 46.3384 16.7358 46.3384 16.028C46.3384 15.3201 45.7618 14.7463 45.0505 14.7463C44.3393 14.7463 43.7627 15.3201 43.7627 16.028C43.7627 16.7358 44.3393 17.3096 45.0505 17.3096Z" fill="black"/>
<path d="M17.1413 25.0861C17.8846 25.0861 18.4871 24.4864 18.4871 23.7467C18.4871 23.007 17.8846 22.4073 17.1413 22.4073C16.398 22.4073 15.7954 23.007 15.7954 23.7467C15.7954 24.4864 16.398 25.0861 17.1413 25.0861Z" fill="black"/>
<path d="M32.1642 25.0861C32.9075 25.0861 33.5101 24.4864 33.5101 23.7467C33.5101 23.007 32.9075 22.4073 32.1642 22.4073C31.4209 22.4073 30.8184 23.007 30.8184 23.7467C30.8184 24.4864 31.4209 25.0861 32.1642 25.0861Z" fill="black"/>
<path d="M42.0068 2.18587C42.3599 1.83436 42.779 1.55553 43.2404 1.36528C43.7018 1.17504 44.1963 1.07712 44.6956 1.07712C45.195 1.07712 45.6895 1.17504 46.1509 1.36528C46.6122 1.55553 47.0314 1.83436 47.3845 2.18587V2.18587C48.0967 2.89561 48.4968 3.85768 48.4968 4.86077C48.4968 5.86386 48.0967 6.82593 47.3845 7.53567L46.174 8.74034C45.461 9.44972 45.0603 10.4119 45.0601 11.4152V12.3774" stroke="black" stroke-linecap="round" stroke-linejoin="round"/>
<path d="M21.5522 32.3122C21.9593 31.9068 22.4427 31.5852 22.9747 31.3658C23.5068 31.1464 24.077 31.0334 24.6529 31.0334C25.2288 31.0334 25.7991 31.1464 26.3311 31.3658C26.8632 31.5852 27.3465 31.9068 27.7536 32.3122" stroke="black" stroke-linecap="round" stroke-linejoin="round"/>
<path d="M43.8745 29.593C44.3781 29.6534 44.8887 29.6134 45.3766 29.4752C45.8645 29.3371 46.3198 29.1035 46.7159 28.7882C47.112 28.4729 47.4411 28.0822 47.6837 27.639C47.9264 27.1957 48.0779 26.7087 48.1293 26.2065C48.1807 25.7043 48.131 25.197 47.9831 24.7141C47.8352 24.2312 47.5921 23.7826 47.268 23.3943C46.9439 23.006 46.5452 22.6858 46.0954 22.4526C45.6455 22.2194 45.1535 22.0777 44.648 22.0359" stroke="black" stroke-linecap="round" stroke-linejoin="round"/>
<path d="M5.63767 29.593C5.13408 29.6534 4.62344 29.6134 4.13557 29.4752C3.64771 29.3371 3.19241 29.1035 2.79628 28.7882C2.40015 28.4729 2.07113 28.0822 1.82846 27.639C1.58579 27.1957 1.43433 26.7087 1.38293 26.2065C1.33153 25.7043 1.38122 25.197 1.5291 24.7141C1.67698 24.2312 1.92008 23.7826 2.24419 23.3943C2.56831 23.006 2.96694 22.6858 3.41679 22.4526C3.86664 22.2194 4.35869 22.0777 4.86419 22.0359" stroke="black" stroke-linecap="round" stroke-linejoin="round"/>
<path d="M4.11572 47.153C4.11547 46.1567 4.31245 45.17 4.69541 44.2494C5.07837 43.3288 5.63981 42.4923 6.34766 41.7877C7.05552 41.0831 7.89592 40.5242 8.82087 40.1428C9.74581 39.7615 10.7372 39.5652 11.7384 39.5652" stroke="black" stroke-linecap="round" stroke-linejoin="round"/>
<path d="M44.8184 47.153C44.8184 46.1566 44.6212 45.1699 44.238 44.2493C43.8549 43.3287 43.2932 42.4922 42.5852 41.7876C41.8772 41.083 41.0367 40.5241 40.1116 40.1428C39.1866 39.7614 38.1951 39.5652 37.1938 39.5652" stroke="black" stroke-linecap="round" stroke-linejoin="round"/>
</svg>
