<svg xmlns="http://www.w3.org/2000/svg" viewBox="0 0 251.24 220.31"><defs><style>.cls-1{fill:none;stroke:#000;stroke-linecap:round;stroke-linejoin:round;stroke-width:10px;}</style></defs><g id="Layer_2" data-name="Layer 2"><g id="Layer_3" data-name="Layer 3"><circle class="cls-1" cx="125.57" cy="94.57" r="89.57"/><path class="cls-1" d="M117.35,18.15A66.81,66.81,0,0,1,50.54,85"/><path class="cls-1" d="M132.89,18.15A66.81,66.81,0,0,0,199.7,85"/><path class="cls-1" d="M224.49,124.06a19.74,19.74,0,1,0,4-39.27"/><path class="cls-1" d="M26.75,124.06a19.74,19.74,0,1,1-4-39.27"/><path class="cls-1" d="M18.88,215.31A39.42,39.42,0,0,1,58.3,175.88"/><path class="cls-1" d="M229.37,215.31a39.43,39.43,0,0,0-39.43-39.43"/><circle cx="85.31" cy="95.02" r="6.96"/><circle cx="163" cy="95.02" r="6.96"/><path class="cls-1" d="M140.19,132.89a22.69,22.69,0,0,1-32.07,0"/></g></g></svg>