<svg width="53" height="53" viewBox="0 0 53 53" fill="none" xmlns="http://www.w3.org/2000/svg">
<path d="M26.7778 46.4948C36.1925 46.4948 43.8247 38.791 43.8247 29.2879C43.8247 19.7848 36.1925 12.0811 26.7778 12.0811C17.3631 12.0811 9.73096 19.7848 9.73096 29.2879C9.73096 38.791 17.3631 46.4948 26.7778 46.4948Z" stroke="black" stroke-linecap="round" stroke-linejoin="round"/>
<path d="M25.2133 14.6073C25.2133 16.2927 24.8844 17.9617 24.2454 19.5188C23.6064 21.076 22.6698 22.4909 21.4891 23.6827C20.3083 24.8745 18.9066 25.8199 17.3639 26.4649C15.8213 27.1099 14.1678 27.4418 12.498 27.4418" stroke="black" stroke-linecap="round" stroke-linejoin="round"/>
<path d="M28.1675 14.6073C28.1675 18.0109 29.5069 21.2751 31.891 23.682C34.2752 26.0889 37.5088 27.4413 40.8808 27.4418" stroke="black" stroke-linecap="round" stroke-linejoin="round"/>
<path d="M45.6045 34.9532C46.5854 35.0355 47.5592 34.7259 48.3163 34.091C49.0735 33.4562 49.5535 32.5467 49.6533 31.5583C49.753 30.5699 49.4645 29.5814 48.8497 28.8055C48.2349 28.0296 47.343 27.5282 46.3658 27.4091" stroke="black" stroke-linecap="round" stroke-linejoin="round"/>
<path d="M7.97061 34.9532C7.47497 35.0135 6.97238 34.9736 6.49222 34.8356C6.01205 34.6977 5.56393 34.4645 5.17406 34.1498C4.78418 33.8351 4.46036 33.445 4.22151 33.0025C3.98267 32.56 3.8336 32.0739 3.78301 31.5726C3.73242 31.0712 3.78133 30.5648 3.92687 30.0827C4.07242 29.6007 4.31168 29.1528 4.63068 28.7652C4.94969 28.3775 5.34203 28.058 5.78478 27.8251C6.22753 27.5923 6.71182 27.4509 7.20933 27.4091" stroke="black" stroke-linecap="round" stroke-linejoin="round"/>
<path d="M6.4707 52.4827C6.4707 51.488 6.66481 50.503 7.04193 49.584C7.41906 48.665 7.97182 47.83 8.66865 47.1266C9.36549 46.4232 10.1928 45.8653 11.1032 45.4846C12.0137 45.104 12.9895 44.9081 13.975 44.9081" stroke="black" stroke-linecap="round" stroke-linejoin="round"/>
<path d="M46.5331 52.4827C46.5331 51.488 46.339 50.503 45.9619 49.584C45.5847 48.665 45.032 47.83 44.3351 47.1266C43.6383 46.4232 42.811 45.8653 41.9006 45.4846C40.9901 45.104 40.0143 44.9081 39.0288 44.9081" stroke="black" stroke-linecap="round" stroke-linejoin="round"/>
<path d="M17.0239 29.2879H21.5592" stroke="black" stroke-linecap="round" stroke-linejoin="round"/>
<path d="M31.8101 29.2879H36.3454" stroke="black" stroke-linecap="round" stroke-linejoin="round"/>
<path d="M26.7778 46.4948C36.1925 46.4948 43.8247 38.791 43.8247 29.2879C43.8247 19.7848 36.1925 12.0811 26.7778 12.0811C17.3631 12.0811 9.73096 19.7848 9.73096 29.2879C9.73096 38.791 17.3631 46.4948 26.7778 46.4948Z" stroke="black" stroke-linecap="round" stroke-linejoin="round"/>
<path d="M25.2133 14.6092C25.2133 16.2947 24.8844 17.9636 24.2454 19.5208C23.6064 21.0779 22.6698 22.4928 21.4891 23.6846C20.3083 24.8764 18.9066 25.8218 17.3639 26.4668C15.8213 27.1118 14.1678 27.4438 12.498 27.4438" stroke="black" stroke-linecap="round" stroke-linejoin="round"/>
<path d="M28.1675 14.6092C28.1675 18.0128 29.5069 21.277 31.891 23.6839C34.2752 26.0908 37.5088 27.4432 40.8808 27.4438" stroke="black" stroke-linecap="round" stroke-linejoin="round"/>
<path d="M45.6045 34.9551C46.5854 35.0374 47.5592 34.7278 48.3163 34.093C49.0735 33.4581 49.5535 32.5487 49.6533 31.5602C49.753 30.5718 49.4645 29.5833 48.8497 28.8074C48.2349 28.0315 47.343 27.5301 46.3658 27.4111" stroke="black" stroke-linecap="round" stroke-linejoin="round"/>
<path d="M7.97061 34.9551C7.47497 35.0154 6.97238 34.9755 6.49222 34.8376C6.01205 34.6996 5.56393 34.4665 5.17406 34.1517C4.78418 33.837 4.46036 33.447 4.22151 33.0045C3.98267 32.562 3.8336 32.0758 3.78301 31.5745C3.73242 31.0732 3.78133 30.5667 3.92687 30.0847C4.07242 29.6026 4.31168 29.1547 4.63068 28.7671C4.94969 28.3795 5.34203 28.0599 5.78478 27.8271C6.22753 27.5943 6.71182 27.4528 7.20933 27.4111" stroke="black" stroke-linecap="round" stroke-linejoin="round"/>
<path d="M6.4707 52.4828C6.4707 51.4882 6.66482 50.5033 7.04197 49.5844C7.41912 48.6655 7.97191 47.8306 8.66877 47.1274C9.36563 46.4242 10.1929 45.8664 11.1034 45.4859C12.0138 45.1055 12.9896 44.9098 13.975 44.91" stroke="black" stroke-linecap="round" stroke-linejoin="round"/>
<path d="M46.5331 52.4828C46.5331 51.4882 46.339 50.5033 45.9618 49.5844C45.5847 48.6655 45.0319 47.8306 44.335 47.1274C43.6382 46.4242 42.8109 45.8664 41.9004 45.4859C40.99 45.1055 40.0142 44.9098 39.0288 44.91" stroke="black" stroke-linecap="round" stroke-linejoin="round"/>
<path d="M17.0239 29.2879H21.5592" stroke="black" stroke-linecap="round" stroke-linejoin="round"/>
<path d="M31.8101 29.2879H36.3454" stroke="black" stroke-linecap="round" stroke-linejoin="round"/>
<path d="M24.6899 36.4439C25.3341 36.1042 26.05 35.9268 26.7768 35.9268C27.5035 35.9268 28.2195 36.1042 28.8636 36.4439" stroke="black" stroke-linecap="round" stroke-linejoin="round"/>
<path d="M0.95166 14.8128C3.3021 14.8128 3.3021 18.2707 5.65063 18.2707C7.99917 18.2707 8.00107 14.8128 10.3496 14.8128C12.6981 14.8128 12.7 18.2707 15.0486 18.2707C17.3971 18.2707 17.399 14.8128 19.7495 14.8128C22.0999 14.8128 22.0999 18.2707 24.4484 18.2707" stroke="#E18686" stroke-miterlimit="10" stroke-linecap="round"/>
<path d="M10.7627 1.40384C13.1112 1.40384 13.1112 4.86174 15.4617 4.86174C17.8121 4.86174 17.8102 1.40384 20.1606 1.40384C22.5111 1.40384 22.5111 4.86174 24.8596 4.86174C27.2081 4.86174 27.2158 1.40384 29.5605 1.40384C31.9052 1.40384 31.909 4.86174 34.2576 4.86174" stroke="#E18686" stroke-miterlimit="10" stroke-linecap="round"/>
<path d="M28.5479 9.74313C30.8964 9.74313 30.8964 13.201 33.2468 13.201C35.5973 13.201 35.5954 9.74313 37.9458 9.74313C40.2962 9.74313 40.2943 13.201 42.6448 13.201C44.9952 13.201 44.9952 9.74313 47.3437 9.74313C49.6923 9.74313 49.6942 13.201 52.0446 13.201" stroke="#E18686" stroke-miterlimit="10" stroke-linecap="round"/>
</svg>
