<svg width="45" height="25" viewBox="0 0 45 25" fill="none" xmlns="http://www.w3.org/2000/svg">
<path d="M1.19043 10.416C4.94455 7.06217 13.0633 0.9422 22.4885 0.9422C32.083 0.9422 40.3329 7.28482 43.9787 10.5942" stroke="black" stroke-linecap="round" stroke-linejoin="round"/>
<path d="M44.0489 14.4503C40.4355 17.7436 32.1399 24.1611 22.4884 24.1611C12.8368 24.1611 4.58119 17.7704 0.950684 14.4788" stroke="black" stroke-linecap="round" stroke-linejoin="round"/>
<path d="M13.2135 14.1066C12.8295 12.0629 13.2262 9.95787 14.334 8.16078C15.4418 6.3637 17.1899 4.98937 19.2716 4.27891C21.3533 3.56846 23.6357 3.56726 25.7182 4.27554C27.8008 4.98382 29.5506 6.35632 30.6605 8.15224" stroke="black" stroke-linecap="round" stroke-linejoin="round"/>
<path d="M31.7062 10.6654C32.2001 12.7577 31.8651 14.9469 30.7635 16.825C29.6618 18.7032 27.8688 20.1422 25.7183 20.874C23.5678 21.6058 21.2066 21.5804 19.0746 20.8026C16.9426 20.0249 15.1853 18.5478 14.1299 16.6465" stroke="black" stroke-linecap="round" stroke-linejoin="round"/>
<path d="M22.4445 14.8244C23.769 14.8244 24.8427 13.8188 24.8427 12.5784C24.8427 11.3379 23.769 10.3323 22.4445 10.3323C21.1201 10.3323 20.0464 11.3379 20.0464 12.5784C20.0464 13.8188 21.1201 14.8244 22.4445 14.8244Z" stroke="black" stroke-linecap="round" stroke-linejoin="round"/>
<path d="M17.4771 8.74179C18.0801 8.05544 18.8379 7.50271 19.6961 7.1233C20.5544 6.74389 21.4917 6.54723 22.4407 6.54743" stroke="black" stroke-linecap="round" stroke-linejoin="round"/>
</svg>
