<svg width="48" height="54" viewBox="0 0 48 54" fill="none" xmlns="http://www.w3.org/2000/svg">
<path d="M23.9658 4.75793V0.992897" stroke="black" stroke-linecap="round" stroke-linejoin="round"/>
<path d="M4.69767 23.777H0.939453" stroke="black" stroke-linecap="round" stroke-linejoin="round"/>
<path d="M10.7035 11.3072L6.94531 7.54217" stroke="black" stroke-linecap="round" stroke-linejoin="round"/>
<path d="M43.3022 23.7582H47.0605" stroke="black" stroke-linecap="round" stroke-linejoin="round"/>
<path d="M37.2964 11.2884L41.0546 7.52335" stroke="black" stroke-linecap="round" stroke-linejoin="round"/>
<path d="M9.69624 26.7062C9.10176 23.304 9.74796 19.8011 11.517 16.8364C13.2859 13.8718 16.0598 11.643 19.3326 10.5568C22.6053 9.47049 26.1588 9.59909 29.3448 10.9191C32.5308 12.2391 35.1369 14.6625 36.6878 17.7473" stroke="black" stroke-linecap="round" stroke-linejoin="round"/>
<path d="M37.8736 21.0982C38.6365 24.568 38.0919 28.1978 36.3443 31.2895C34.5968 34.3812 31.7699 36.7164 28.4074 37.8459C25.0448 38.9754 21.3842 38.8194 18.1295 37.408C14.8748 35.9966 12.256 33.4294 10.7769 30.2002" stroke="black" stroke-linecap="round" stroke-linejoin="round"/>
<path d="M20.3921 25.4543V33.9332" stroke="black" stroke-linecap="round" stroke-linejoin="round"/>
<path d="M22.6509 25.8214C23.5115 26.0611 24.421 26.0611 25.2816 25.8214" stroke="black" stroke-linecap="round" stroke-linejoin="round"/>
<path d="M18.1148 25.8421C17.6803 26.0344 17.2052 26.1161 16.7316 26.0798C16.2581 26.0435 15.8008 25.8904 15.4006 25.6341C15.0005 25.3779 14.6698 25.0264 14.4381 24.6111C14.2064 24.1957 14.0809 23.7294 14.0728 23.2536C14.0658 22.8829 14.1296 22.5142 14.2607 22.1674C14.4667 21.6329 14.8269 21.172 15.2954 20.8434C15.764 20.5148 16.3196 20.3335 16.8915 20.3226C17.2621 20.3156 17.6308 20.3795 17.9776 20.5108C18.5106 20.7177 18.9702 21.0787 19.2978 21.5481C19.6254 22.0174 19.8062 22.5738 19.8172 23.1463" stroke="black" stroke-linecap="round" stroke-linejoin="round"/>
<path d="M27.542 25.4543V33.9332" stroke="black" stroke-linecap="round" stroke-linejoin="round"/>
<path d="M29.8197 25.8421C30.2541 26.0344 30.7292 26.1161 31.2028 26.0798C31.6763 26.0435 32.1336 25.8904 32.5338 25.6341C32.9339 25.3779 33.2646 25.0264 33.4963 24.6111C33.728 24.1957 33.8535 23.7294 33.8616 23.2536C33.8686 22.8829 33.8048 22.5142 33.6737 22.1674C33.4677 21.6329 33.1075 21.172 32.6389 20.8434C32.1704 20.5148 31.6148 20.3335 31.043 20.3226C30.6723 20.3156 30.3036 20.3795 29.9568 20.5108C29.6043 20.6473 29.2822 20.8521 29.0088 21.1134C28.7353 21.3747 28.516 21.6875 28.3633 22.0338C28.2066 22.386 28.1228 22.7664 28.1172 23.152" stroke="black" stroke-linecap="round" stroke-linejoin="round"/>
<path d="M18.293 39.9534V45.697" stroke="black" stroke-linecap="round" stroke-linejoin="round"/>
<path d="M29.4849 39.9534V45.697" stroke="black" stroke-linecap="round" stroke-linejoin="round"/>
<path d="M20.561 41.5404C22.6966 42.316 25.0362 42.316 27.1717 41.5404" stroke="black" stroke-linecap="round" stroke-linejoin="round"/>
<path d="M27.1717 44.5939C25.0362 45.3695 22.6966 45.3695 20.561 44.5939" stroke="black" stroke-linecap="round" stroke-linejoin="round"/>
<path d="M29.267 48.0803C25.7216 48.9663 22.0132 48.9663 18.4678 48.0803" stroke="black" stroke-linecap="round" stroke-linejoin="round"/>
<path d="M25.4846 51.2881C25.4694 51.7615 25.271 52.2104 24.9313 52.5399C24.5917 52.8694 24.1374 53.0537 23.6646 53.0537C23.1919 53.0537 22.7376 52.8694 22.398 52.5399C22.0583 52.2104 21.8599 51.7615 21.8447 51.2881" stroke="black" stroke-linecap="round" stroke-linejoin="round"/>
</svg>
