<svg width="40" height="41" viewBox="0 0 40 41" fill="none" xmlns="http://www.w3.org/2000/svg">
<path d="M12.7642 27.0317V9.18054C12.7623 8.36467 13.0625 7.5759 13.6092 6.96095C14.1558 6.34601 14.9115 5.94675 15.7358 5.83745L35.529 0.909602C36.0147 0.844407 36.509 0.882006 36.9787 1.01987C37.4484 1.15774 37.8825 1.39267 38.2519 1.70887C38.6212 2.02507 38.9173 2.41519 39.1201 2.853C39.3229 3.29081 39.4278 3.76614 39.4276 4.24703V19.9626" stroke="black" stroke-miterlimit="10" stroke-linecap="round"/>
<path d="M16.2876 13.8273L35.9481 9.37674" stroke="black" stroke-miterlimit="10" stroke-linecap="round"/>
<path d="M3.30305 30.9634C2.32749 31.7221 1.66444 32.8012 1.43615 34.0017C1.20785 35.2021 1.42971 36.4431 2.06081 37.4958C2.69192 38.5484 3.68972 39.3418 4.87025 39.7296C6.05078 40.1174 7.33444 40.0735 8.48457 39.606" stroke="black" stroke-miterlimit="10" stroke-linecap="round"/>
<path d="M11.3851 37.6987C12.3625 36.9408 13.0272 35.8616 13.2565 34.6604C13.4857 33.4592 13.2641 32.2172 12.6324 31.1639C12.0008 30.1105 11.0018 29.317 9.82009 28.9299C8.63839 28.5428 7.35379 28.5883 6.20361 29.058" stroke="black" stroke-miterlimit="10" stroke-linecap="round"/>
<path d="M29.3817 23.5868C28.4061 24.3455 27.7431 25.4245 27.5148 26.625C27.2865 27.8255 27.5083 29.0665 28.1394 30.1191C28.7705 31.1718 29.7683 31.9652 30.9489 32.353C32.1294 32.7408 33.413 32.6969 34.5632 32.2294" stroke="black" stroke-miterlimit="10" stroke-linecap="round"/>
<path d="M37.4638 30.322C38.4411 29.5641 39.1058 28.4849 39.3351 27.2837C39.5644 26.0825 39.3427 24.8405 38.711 23.7872C38.0794 22.7338 37.0804 21.9403 35.8987 21.5532C34.717 21.1661 33.4324 21.2116 32.2822 21.6813" stroke="black" stroke-miterlimit="10" stroke-linecap="round"/>
</svg>
