<svg width="47" height="45" viewBox="0 0 47 45" fill="none" xmlns="http://www.w3.org/2000/svg">
<path d="M0.956055 29.3805C1.17187 28.3518 1.59291 27.3748 2.19516 26.5051C3.08681 25.2114 4.34457 24.1994 5.81496 23.5923C6.82907 23.1737 7.9189 22.9583 9.01981 22.9589H37.982C39.6214 22.9583 41.2236 23.4365 42.5828 24.3322C43.4588 24.9116 44.2136 25.6491 44.8067 26.5051C45.1063 26.9351 45.3624 27.3925 45.5715 27.8709C45.7818 28.3573 45.942 28.863 46.0496 29.3805" stroke="black" stroke-linecap="round" stroke-linejoin="round"/>
<path d="M10.502 20.1863C10.502 19.7059 10.5988 19.2302 10.787 18.7863C10.9751 18.3425 11.2509 17.9392 11.5986 17.5995C11.9462 17.2598 12.359 16.9904 12.8132 16.8065C13.2675 16.6227 13.7544 16.528 14.246 16.528C14.7377 16.528 15.2246 16.6227 15.6788 16.8065C16.1331 16.9904 16.5458 17.2598 16.8935 17.5995C17.2412 17.9392 17.517 18.3425 17.7051 18.7863C17.8933 19.2302 17.9901 19.7059 17.9901 20.1863" stroke="black" stroke-linecap="round" stroke-linejoin="round"/>
<path d="M29.0103 20.1863C29.0103 19.2161 29.4047 18.2856 30.1069 17.5995C30.809 16.9135 31.7613 16.528 32.7543 16.528C33.7473 16.528 34.6997 16.9135 35.4018 17.5995C36.104 18.2856 36.4984 19.2161 36.4984 20.1863" stroke="black" stroke-linecap="round" stroke-linejoin="round"/>
<path d="M2.75146 40.4655V43.5091" stroke="black" stroke-linecap="round" stroke-linejoin="round"/>
<path d="M44.248 40.4655V43.5091" stroke="black" stroke-linecap="round" stroke-linejoin="round"/>
<path d="M5.69238 20.5955C5.69238 18.4593 6.56089 16.4106 8.10685 14.9001C9.65281 13.3896 11.7496 12.541 13.9359 12.541" stroke="black" stroke-linecap="round" stroke-linejoin="round"/>
<path d="M33.0659 12.541C35.2512 12.5424 37.3465 13.3917 38.8913 14.9021C40.436 16.4124 41.3037 18.4603 41.3037 20.5955" stroke="black" stroke-linecap="round" stroke-linejoin="round"/>
<path d="M17.5444 12.541H29.4575" stroke="black" stroke-linecap="round" stroke-linejoin="round"/>
<path d="M46.0439 32.2559H0.956055V37.6163H46.0439V32.2559Z" stroke="black" stroke-linecap="round" stroke-linejoin="round"/>
<path d="M38.6836 7.66266H32.1802" stroke="black" stroke-linecap="round" stroke-linejoin="round"/>
<path d="M32.1802 7.66265L38.6128 1.37747" stroke="black" stroke-linecap="round" stroke-linejoin="round"/>
<path d="M38.6128 1.37747H32.1802" stroke="black" stroke-linecap="round" stroke-linejoin="round"/>
<path d="M26.5433 9.47308H22.7954" stroke="black" stroke-linecap="round" stroke-linejoin="round"/>
<path d="M22.7954 9.4731L26.5032 5.8522" stroke="black" stroke-linecap="round" stroke-linejoin="round"/>
<path d="M26.5032 5.8522H22.7954" stroke="black" stroke-linecap="round" stroke-linejoin="round"/>
</svg>
