<svg width="32" height="55" viewBox="0 0 32 55" fill="none" xmlns="http://www.w3.org/2000/svg">
<path d="M12.9601 51.6964C18.3539 51.6964 22.7264 47.2393 22.7264 41.7412C22.7264 36.2431 18.3539 31.786 12.9601 31.786C7.56635 31.786 3.19385 36.2431 3.19385 41.7412C3.19385 47.2393 7.56635 51.6964 12.9601 51.6964Z" fill="#E18686"/>
<path d="M12.9602 2.97318C13.5213 2.97423 14.0591 3.20175 14.456 3.60598C14.8529 4.0102 15.0766 4.55822 15.0782 5.13015V40.6844H10.8384V5.13015C10.8399 4.55754 11.0641 4.00892 11.4619 3.60458C11.8597 3.20024 12.3985 2.97318 12.9602 2.97318Z" fill="#E18686"/>
<path d="M17.5758 30.0004C20.2587 31.092 22.4847 33.1024 23.8711 35.6858C25.2574 38.2692 25.7175 41.2642 25.1722 44.156C24.6269 47.0477 23.1103 49.6554 20.8832 51.5308C18.6561 53.4062 15.8576 54.4321 12.9688 54.4321C10.08 54.4321 7.28151 53.4062 5.05439 51.5308C2.82726 49.6554 1.31068 47.0477 0.765404 44.156C0.220123 41.2642 0.680207 38.2692 2.06655 35.6858C3.4529 33.1024 5.67889 31.092 8.3618 30.0004" stroke="black" stroke-miterlimit="10" stroke-linecap="round"/>
<path d="M8.36182 17.6531V29.7238" stroke="black" stroke-miterlimit="10" stroke-linecap="round"/>
<path d="M17.5757 17.742V29.7238" stroke="black" stroke-miterlimit="10" stroke-linecap="round"/>
<path d="M8.36158 12.2844C8.32476 6.27972 8.36158 6.33108 8.36158 5.1005C8.3863 3.87169 8.88254 2.70171 9.74383 1.84158C10.6051 0.981448 11.7628 0.499703 12.9686 0.499703C14.1743 0.499703 15.332 0.981448 16.1933 1.84158C17.0546 2.70171 17.5509 3.87169 17.5756 5.1005V12.2943" stroke="black" stroke-miterlimit="10" stroke-linecap="round"/>
<path d="M30.6074 17.74L20.876 11.7195" stroke="#E18686" stroke-miterlimit="10" stroke-linecap="round"/>
<path d="M30.6074 11.7195L20.876 17.74" stroke="#E18686" stroke-miterlimit="10" stroke-linecap="round"/>
<path d="M25.7417 20.5311V8.9285" stroke="#E18686" stroke-miterlimit="10" stroke-linecap="round"/>
<path d="M25.6795 18.386C27.6947 18.386 29.3283 16.7208 29.3283 14.6666C29.3283 12.6124 27.6947 10.9472 25.6795 10.9472C23.6644 10.9472 22.0308 12.6124 22.0308 14.6666C22.0308 16.7208 23.6644 18.386 25.6795 18.386Z" fill="#F6F6F6" stroke="#E18686" stroke-miterlimit="10" stroke-linecap="round"/>
<path opacity="0.5" d="M7.95883 47.4161C6.50468 46.0642 5.63692 44.1789 5.54643 42.1749C5.45594 40.1709 6.15015 38.2123 7.47633 36.73C8.80251 35.2477 10.652 34.3632 12.618 34.271C14.584 34.1787 16.5054 34.8864 17.9596 36.2382" fill="#F6F6F6"/>
</svg>
