<svg width="49" height="38" viewBox="0 0 49 38" fill="none" xmlns="http://www.w3.org/2000/svg">
<path d="M32.4932 16.1821C35.3484 15.7128 38.263 15.769 41.0988 16.3481" stroke="black" stroke-linecap="round" stroke-linejoin="round"/>
<path d="M21.3994 13.451C22.4962 13.0092 23.5585 12.4828 24.577 11.8765C28.1818 9.84931 32.2312 8.78616 36.3476 8.78616C40.4641 8.78616 44.5135 9.84931 48.1183 11.8765" stroke="black" stroke-linecap="round" stroke-linejoin="round"/>
<path d="M30.2504 4.45504H12.7979V33.1973H30.2504V4.45504Z" stroke="black" stroke-linecap="round" stroke-linejoin="round"/>
<path d="M34.2056 0.801956H8.83887V36.8484H34.2056V0.801956Z" stroke="black" stroke-linecap="round" stroke-linejoin="round"/>
<path fill-rule="evenodd" clip-rule="evenodd" d="M13.3259 28.788C13.1526 28.7921 12.9791 28.7941 12.8054 28.7941C12.6142 28.7941 12.4231 28.7916 12.2323 28.7868V29.7871C12.4231 29.7917 12.6142 29.7941 12.8054 29.7941C12.9791 29.7941 13.1526 29.7922 13.3259 29.7883V28.788ZM14.7399 29.7139V28.7103C18.1111 28.4177 21.3853 27.3628 24.321 25.6121L24.3319 25.6056L24.332 25.6057C28.0113 23.5366 32.145 22.4512 36.3477 22.4512C40.5505 22.4512 44.6842 23.5366 48.3635 25.6057C48.6042 25.7411 48.6896 26.0459 48.5542 26.2866C48.4189 26.5273 48.114 26.6127 47.8733 26.4773C44.343 24.492 40.3779 23.4512 36.3477 23.4512C32.3196 23.4512 28.3565 24.4909 24.8275 26.4743C21.7388 28.3152 18.2902 29.419 14.7399 29.7139ZM1.28987 25.6121C3.78396 27.0995 6.52249 28.0846 9.35725 28.5268V29.5383C6.34109 29.0885 3.42687 28.0509 0.777664 26.4709C0.540496 26.3295 0.462895 26.0226 0.604338 25.7854C0.74578 25.5482 1.0527 25.4706 1.28987 25.6121Z" fill="black"/>
<path fill-rule="evenodd" clip-rule="evenodd" d="M13.3259 21.7061C13.1526 21.7102 12.979 21.7124 12.8054 21.7126C12.6142 21.7124 12.4231 21.7098 12.2323 21.7048V22.7051C12.423 22.7099 12.6139 22.7124 12.8049 22.7126H12.8059C12.9794 22.7124 13.1527 22.7103 13.3259 22.7063V21.7061ZM14.7399 22.631V21.6273C18.1098 21.3331 21.3833 20.2822 24.322 18.5397L24.3315 18.5341L24.3315 18.5342C25.083 18.1106 25.8562 17.7282 26.6478 17.3889C26.9016 17.2801 27.1956 17.3976 27.3044 17.6514C27.4132 17.9052 27.2956 18.1992 27.0418 18.308C26.2851 18.6324 25.5459 18.9978 24.8273 19.4027C21.7358 21.2348 18.2884 22.3345 14.7399 22.631ZM1.28881 18.5397C3.78531 20.0202 6.52353 21.0015 9.35726 21.4435V22.4551C6.34298 22.0053 3.42985 20.972 0.778726 19.3998C0.54121 19.259 0.462851 18.9522 0.603708 18.7147C0.744564 18.4772 1.0513 18.3988 1.28881 18.5397Z" fill="black"/>
<path fill-rule="evenodd" clip-rule="evenodd" d="M13.3259 14.6251C13.1527 14.6291 12.9793 14.6311 12.8059 14.6311C12.6145 14.6308 12.4233 14.628 12.2323 14.6229V15.6232C12.4229 15.6282 12.6137 15.6308 12.8047 15.6311L12.8053 15.6311C12.9789 15.6311 13.1524 15.6292 13.3259 15.6254V14.6251ZM14.7399 15.5507V14.5471C15.6476 14.4679 16.5504 14.3326 17.4434 14.142C17.7134 14.0843 17.9791 14.2565 18.0368 14.5266C18.0944 14.7966 17.9222 15.0623 17.6522 15.12C16.6905 15.3253 15.7179 15.4691 14.7399 15.5507ZM1.28936 11.4468C3.78482 12.931 6.523 13.9154 9.35725 14.3597V15.3714C6.342 14.9192 3.42852 13.8826 0.778178 12.3062C0.540841 12.1651 0.462874 11.8582 0.604032 11.6209C0.745191 11.3836 1.05202 11.3056 1.28936 11.4468Z" fill="black"/>
</svg>
